<svg xmlns="http://www.w3.org/2000/svg" viewBox="0 0 500 480" font-family="system-ui, -apple-system, sans-serif">
  <defs>
    <linearGradient id="headerGrad" x1="0%" y1="0%" x2="100%" y2="0%">
      <stop offset="0%" style="stop-color:#6366f1;stop-opacity:1" />
      <stop offset="100%" style="stop-color:#8b5cf6;stop-opacity:1" />
    </linearGradient>
    <linearGradient id="boxGrad" x1="0%" y1="0%" x2="0%" y2="100%">
      <stop offset="0%" style="stop-color:#f8fafc;stop-opacity:1" />
      <stop offset="100%" style="stop-color:#f1f5f9;stop-opacity:1" />
    </linearGradient>
    <linearGradient id="agentGrad" x1="0%" y1="0%" x2="100%" y2="0%">
      <stop offset="0%" style="stop-color:#3b82f6;stop-opacity:1" />
      <stop offset="100%" style="stop-color:#6366f1;stop-opacity:1" />
    </linearGradient>
    <filter id="shadow" x="-10%" y="-10%" width="120%" height="130%">
      <feDropShadow dx="0" dy="4" stdDeviation="6" flood-opacity="0.1"/>
    </filter>
  </defs>
  
  <!-- User Query bubble -->
  <rect x="175" y="15" width="150" height="36" rx="18" fill="#e0e7ff" stroke="#6366f1" stroke-width="1.5"/>
  <text x="250" y="38" text-anchor="middle" fill="#4338ca" font-size="14" font-weight="500">User Query</text>
  
  <!-- Arrow down -->
  <path d="M250 51 L250 75" stroke="#94a3b8" stroke-width="2" fill="none"/>
  <polygon points="250,85 244,75 256,75" fill="#94a3b8"/>

  <!-- Pre-init: Gather tools -->
  <rect x="50" y="95" width="400" height="110" rx="12" fill="url(#boxGrad)" stroke="#e2e8f0" stroke-width="2" filter="url(#shadow)"/>
  <rect x="50" y="95" width="400" height="40" rx="12" fill="url(#headerGrad)"/>
  <rect x="50" y="123" width="400" height="12" fill="url(#headerGrad)"/>
  <text x="250" y="121" text-anchor="middle" fill="white" font-size="15" font-weight="600">Gather Tools</text>

  <g font-size="13" fill="#374151">
    <circle cx="85" cy="160" r="12" fill="#dbeafe" stroke="#3b82f6" stroke-width="1.5"/>
    <text x="85" y="164" text-anchor="middle" fill="#1d4ed8" font-weight="600" font-size="11">1</text>
    <text x="106" y="164" fill="#374151">Connect to MCPs + Toolkits</text>

    <circle cx="85" cy="190" r="12" fill="#dbeafe" stroke="#3b82f6" stroke-width="1.5"/>
    <text x="85" y="194" text-anchor="middle" fill="#1d4ed8" font-weight="600" font-size="11">2</text>
    <text x="106" y="194" fill="#374151">List all tools</text>
  </g>

  <!-- Returns badge -->
  <rect x="150" y="212" width="200" height="26" rx="6" fill="#fee2e2" stroke="#fca5a5" stroke-width="1"/>
  <text x="250" y="230" text-anchor="middle" fill="#dc2626" font-size="12" font-weight="500">ALL 50 tools collected</text>

  <!-- Arrow down -->
  <path d="M250 245 L250 265" stroke="#94a3b8" stroke-width="2" fill="none"/>
  <polygon points="250,275 244,265 256,265" fill="#94a3b8"/>

  <!-- Agent Init box -->
  <rect x="50" y="285" width="400" height="170" rx="12" fill="url(#boxGrad)" stroke="#e2e8f0" stroke-width="2" filter="url(#shadow)"/>
  <rect x="50" y="285" width="400" height="40" rx="12" fill="url(#agentGrad)"/>
  <rect x="50" y="313" width="400" height="12" fill="url(#agentGrad)"/>
  <text x="250" y="311" text-anchor="middle" fill="white" font-size="15" font-weight="600">Agent Initialization</text>

  <g font-size="13" fill="#374151">
    <circle cx="85" cy="350" r="12" fill="#dbeafe" stroke="#3b82f6" stroke-width="1.5"/>
    <text x="85" y="354" text-anchor="middle" fill="#1d4ed8" font-weight="600" font-size="11">3</text>
    <text x="106" y="354" fill="#374151">Build system prompt</text>
    <text x="280" y="354" fill="#dc2626" font-size="12" font-weight="500">(50 tools)</text>

    <circle cx="85" cy="385" r="12" fill="#dbeafe" stroke="#3b82f6" stroke-width="1.5"/>
    <text x="85" y="389" text-anchor="middle" fill="#1d4ed8" font-weight="600" font-size="11">4</text>
    <text x="106" y="389" fill="#374151">Create agent with all tools</text>

    <circle cx="85" cy="420" r="12" fill="#dbeafe" stroke="#3b82f6" stroke-width="1.5"/>
    <text x="85" y="424" text-anchor="middle" fill="#1d4ed8" font-weight="600" font-size="11">5</text>
    <text x="106" y="424" fill="#374151">Execute</text>
  </g>
</svg>
