<svg xmlns="http://www.w3.org/2000/svg" viewBox="0 0 500 400" font-family="system-ui, -apple-system, sans-serif">
  <defs>
    <linearGradient id="headerGrad" x1="0%" y1="0%" x2="100%" y2="0%">
      <stop offset="0%" style="stop-color:#6366f1;stop-opacity:1" />
      <stop offset="100%" style="stop-color:#8b5cf6;stop-opacity:1" />
    </linearGradient>
    <linearGradient id="boxGrad" x1="0%" y1="0%" x2="0%" y2="100%">
      <stop offset="0%" style="stop-color:#f8fafc;stop-opacity:1" />
      <stop offset="100%" style="stop-color:#f1f5f9;stop-opacity:1" />
    </linearGradient>
    <filter id="shadow" x="-10%" y="-10%" width="120%" height="130%">
      <feDropShadow dx="0" dy="4" stdDeviation="6" flood-opacity="0.1"/>
    </filter>
  </defs>
  
  <!-- User Query bubble -->
  <rect x="175" y="15" width="150" height="36" rx="18" fill="#e0e7ff" stroke="#6366f1" stroke-width="1.5"/>
  <text x="250" y="38" text-anchor="middle" fill="#4338ca" font-size="14" font-weight="500">User Query</text>
  
  <!-- Arrow down -->
  <path d="M250 51 L250 75" stroke="#94a3b8" stroke-width="2" fill="none"/>
  <polygon points="250,85 244,75 256,75" fill="#94a3b8"/>
  
  <!-- Main container -->
  <rect x="50" y="95" width="400" height="280" rx="12" fill="url(#boxGrad)" stroke="#e2e8f0" stroke-width="2" filter="url(#shadow)"/>
  
  <!-- Header -->
  <rect x="50" y="95" width="400" height="44" rx="12" fill="url(#headerGrad)"/>
  <rect x="50" y="127" width="400" height="12" fill="url(#headerGrad)"/>
  <text x="250" y="123" text-anchor="middle" fill="white" font-size="16" font-weight="600">Agent Initialization</text>
  
  <!-- Steps -->
  <g font-size="14" fill="#374151">
    <!-- Step 1 -->
    <circle cx="85" cy="170" r="14" fill="#dbeafe" stroke="#3b82f6" stroke-width="1.5"/>
    <text x="85" y="175" text-anchor="middle" fill="#1d4ed8" font-weight="600" font-size="12">1</text>
    <text x="110" y="175" fill="#374151">Connect to MCPs</text>
    
    <!-- Step 2 -->
    <circle cx="85" cy="210" r="14" fill="#dbeafe" stroke="#3b82f6" stroke-width="1.5"/>
    <text x="85" y="215" text-anchor="middle" fill="#1d4ed8" font-weight="600" font-size="12">2</text>
    <text x="110" y="215" fill="#374151">List tools from MCPs + Toolkits</text>
    
    <!-- Step 3 -->
    <circle cx="85" cy="250" r="14" fill="#dbeafe" stroke="#3b82f6" stroke-width="1.5"/>
    <text x="85" y="255" text-anchor="middle" fill="#1d4ed8" font-weight="600" font-size="12">3</text>
    <text x="110" y="255" fill="#374151">determine_tools_for_model()</text>
    
    <!-- Returns badge -->
    <rect x="130" y="270" width="180" height="26" rx="6" fill="#fee2e2" stroke="#fca5a5" stroke-width="1"/>
    <text x="220" y="288" text-anchor="middle" fill="#dc2626" font-size="12" font-weight="500">Returns ALL 50 tools</text>
    
    <!-- Step 4 -->
    <circle cx="85" cy="315" r="14" fill="#dbeafe" stroke="#3b82f6" stroke-width="1.5"/>
    <text x="85" y="320" text-anchor="middle" fill="#1d4ed8" font-weight="600" font-size="12">4</text>
    <text x="110" y="320" fill="#374151">Build system prompt</text>
    <text x="280" y="320" fill="#dc2626" font-size="12" font-weight="500">(50 tools)</text>
    
    <!-- Step 5 -->
    <circle cx="85" cy="355" r="14" fill="#dbeafe" stroke="#3b82f6" stroke-width="1.5"/>
    <text x="85" y="360" text-anchor="middle" fill="#1d4ed8" font-weight="600" font-size="12">5</text>
    <text x="110" y="360" fill="#374151">Execute</text>
  </g>
</svg>
